<svg width="24" height="30" viewBox="0 0 24 30" fill="none" xmlns="http://www.w3.org/2000/svg">
<path d="M21.2257 0H2.76857C1.24009 0 0 1.25964 0 2.81223V27.2581C0 27.305 0.00288396 27.3548 0.00865182 27.4016C0.0115357 27.4251 0.0115358 27.4485 0.0144197 27.4749C0.14708 28.7931 1.18818 29.8477 2.48594 29.9854C2.50901 29.9883 2.53208 29.9912 2.55804 29.9912C2.60418 29.9941 2.65321 29.9971 2.69935 30H21.3006C21.3468 30 21.3958 29.9971 21.442 29.9912C21.465 29.9883 21.4881 29.9883 21.5141 29.9854C22.8118 29.8506 23.85 28.7931 23.9856 27.4749C23.9885 27.4514 23.9913 27.428 23.9913 27.4016C23.9942 27.3548 23.9971 27.305 24 27.2581V2.81223C23.9942 1.25964 22.7541 0 21.2257 0ZM22.1485 27.1848V27.2464C22.1485 27.2552 22.1485 27.261 22.1456 27.2698C22.1428 27.2932 22.1399 27.3137 22.137 27.3372C22.137 27.346 22.1341 27.3547 22.1312 27.3635C22.1312 27.3723 22.1283 27.3811 22.1255 27.3899C22.0476 27.7444 21.7736 28.0227 21.4247 28.1017C21.416 28.1047 21.4074 28.1047 21.3987 28.1076C21.39 28.1105 21.3814 28.1105 21.3727 28.1105C21.3526 28.1135 21.3295 28.1164 21.3064 28.1193C21.2978 28.1193 21.292 28.1193 21.2833 28.1223H2.708C2.69935 28.1223 2.69358 28.1223 2.68493 28.1193C2.66186 28.1164 2.64167 28.1135 2.6186 28.1105C2.60995 28.1105 2.6013 28.1076 2.59265 28.1076C2.58399 28.1076 2.57534 28.1047 2.56669 28.1017C2.21774 28.0227 1.94376 27.7444 1.8659 27.3899C1.86301 27.3811 1.86301 27.3723 1.86013 27.3635C1.85725 27.3547 1.85725 27.346 1.85436 27.3372C1.85148 27.3167 1.84859 27.2932 1.84571 27.2698C1.84571 27.261 1.84571 27.2552 1.84283 27.2464V26.3646C1.84283 26.3002 1.89474 26.2474 1.95818 26.2474H21.2228C21.7361 26.2474 22.1485 26.6663 22.1485 27.1848ZM1.84571 24.2554V2.81223C1.84571 2.29372 2.25811 1.87482 2.76857 1.87482H21.2257C21.7361 1.87482 22.1485 2.29372 22.1485 2.81223V22.4978C22.1485 23.5319 21.3208 24.3726 20.3028 24.3726H1.96107C1.89762 24.3726 1.84571 24.3199 1.84571 24.2554Z" fill="white"/>
<path d="M17.5342 8.3195C17.5342 8.38395 17.4823 8.43668 17.4189 8.43668H6.57534C6.5119 8.43668 6.45999 8.38395 6.45999 8.3195V6.67904C6.45999 6.61459 6.5119 6.56186 6.57534 6.56186H17.4189C17.4823 6.56186 17.5342 6.61459 17.5342 6.67904V8.3195ZM5.0757 4.68704C4.82192 4.68704 4.61428 4.89796 4.61428 5.15575V9.84279C4.61428 10.1006 4.82192 10.3115 5.0757 10.3115H18.9185C19.1723 10.3115 19.38 10.1006 19.38 9.84279V5.15575C19.38 4.89796 19.1723 4.68704 18.9185 4.68704H5.0757ZM19.1492 14.0611H4.84499C4.7181 14.0611 4.61428 13.9557 4.61428 13.8268V12.4207C4.61428 12.2918 4.7181 12.1863 4.84499 12.1863H19.1492C19.2761 12.1863 19.38 12.2918 19.38 12.4207V13.8268C19.38 13.9557 19.2761 14.0611 19.1492 14.0611ZM19.1492 17.8108H4.84499C4.7181 17.8108 4.61428 17.7053 4.61428 17.5764V16.1703C4.61428 16.0414 4.7181 15.9359 4.84499 15.9359H19.1492C19.2761 15.9359 19.38 16.0414 19.38 16.1703V17.5764C19.38 17.7053 19.2761 17.8108 19.1492 17.8108Z" fill="white"/>
</svg>
